<svg xmlns="http://www.w3.org/2000/svg" width="512" height="512" viewBox="0 0 512 512" version="1.1"><path d="M 120 29.516 C 88.246 34.903, 58.477 51.402, 38.399 74.742 C 12.820 104.476, -0.032 140.307, 0.018 181.743 C 0.075 228.849, 17.529 269.071, 58.058 315.500 C 69.897 329.061, 99.621 358.156, 121.500 377.596 C 142.458 396.219, 228.858 470.505, 236.836 476.761 C 246.329 484.206, 257.807 485.833, 268.249 481.214 C 272.449 479.356, 348.999 414.471, 390.500 377.592 C 435.284 337.796, 465.892 304.532, 483.521 276.500 C 497.421 254.399, 508.301 225.729, 510.569 205.228 C 510.951 201.778, 511.654 198.714, 512.132 198.419 C 512.609 198.123, 513 190.007, 513 180.382 C 513 170.667, 512.612 163.122, 512.127 163.422 C 511.647 163.718, 510.942 161.157, 510.561 157.731 C 506.611 122.203, 486.083 82.926, 460.214 61.397 C 433.063 38.801, 403.842 28.063, 369.381 28.017 C 332.150 27.968, 302.157 40.744, 274.453 68.451 C 267.828 75.078, 260.965 82.300, 259.203 84.500 L 256 88.500 252.797 84.500 C 251.035 82.300, 244.172 75.078, 237.547 68.451 C 215.448 46.350, 193.255 34.508, 164.619 29.541 C 153.960 27.692, 130.830 27.679, 120 29.516 M 127.500 59.098 C 76.778 66.322, 39.280 106.531, 31.545 161.990 C 25.411 205.973, 38.565 244.408, 74.805 288.393 C 86.178 302.197, 113.994 329.955, 138 351.456 C 160.400 371.519, 255.070 453.001, 255.979 452.999 C 256.900 452.998, 351.759 371.387, 374 351.461 C 445.537 287.372, 473.718 247.431, 480.515 200.500 C 484.888 170.309, 478.534 137.481, 463.392 112.025 C 429.981 55.857, 355.939 40.782, 306.500 80.083 C 294.800 89.384, 282.608 103.185, 273.701 117.211 C 268.667 125.139, 263.583 128.333, 256 128.333 C 248.417 128.333, 243.333 125.139, 238.299 117.211 C 225.841 97.593, 209.541 81.227, 192.413 71.140 C 174.494 60.586, 149.547 55.958, 127.500 59.098 M 0.413 181.500 C 0.414 191.400, 0.564 195.315, 0.746 190.199 C 0.928 185.084, 0.927 176.984, 0.744 172.199 C 0.561 167.415, 0.412 171.600, 0.413 181.500" stroke="none" fill="#040404" fill-rule="evenodd"/><path d="M 127.500 59.098 C 76.778 66.322, 39.280 106.531, 31.545 161.990 C 25.411 205.973, 38.565 244.408, 74.805 288.393 C 86.178 302.197, 113.994 329.955, 138 351.456 C 160.400 371.519, 255.070 453.001, 255.979 452.999 C 256.900 452.998, 351.759 371.387, 374 351.461 C 445.537 287.372, 473.718 247.431, 480.515 200.500 C 484.888 170.309, 478.534 137.481, 463.392 112.025 C 429.981 55.857, 355.939 40.782, 306.500 80.083 C 294.800 89.384, 282.608 103.185, 273.701 117.211 C 268.667 125.139, 263.583 128.333, 256 128.333 C 248.417 128.333, 243.333 125.139, 238.299 117.211 C 225.841 97.593, 209.541 81.227, 192.413 71.140 C 174.494 60.586, 149.547 55.958, 127.500 59.098" stroke="none" fill="#fb3343" fill-rule="evenodd"/></svg>